<svg xmlns="http://www.w3.org/2000/svg" xmlns:xlink="http://www.w3.org/1999/xlink" width="500" zoomAndPan="magnify" viewBox="0 0 375 374.999991" height="500" preserveAspectRatio="xMidYMid meet" version="1.0"><defs><g/><clipPath id="f8d0bb43d7"><path d="M 36.75 37.5 L 330 37.5 L 330 330.75 L 36.75 330.75 Z M 36.75 37.5 " clip-rule="nonzero"/></clipPath><clipPath id="05fd730f60"><path d="M 183.375 37.5 C 102.394531 37.5 36.75 103.144531 36.75 184.125 C 36.75 265.105469 102.394531 330.75 183.375 330.75 C 264.355469 330.75 330 265.105469 330 184.125 C 330 103.144531 264.355469 37.5 183.375 37.5 " clip-rule="nonzero"/></clipPath><clipPath id="964d87b545"><path d="M 82 145 L 375 145 L 375 375 L 82 375 Z M 82 145 " clip-rule="nonzero"/></clipPath><clipPath id="3a1e6db6f2"><path d="M 82.476562 299.140625 L 332.101562 145.25 L 393.5 244.84375 L 143.875 398.738281 Z M 82.476562 299.140625 " clip-rule="nonzero"/></clipPath></defs><rect x="-37.5" width="450" fill="#ffffff" y="-37.499999" height="449.999989" fill-opacity="1"/><rect x="-37.5" width="450" fill="#ffffff" y="-37.499999" height="449.999989" fill-opacity="1"/><rect x="-37.5" width="450" fill="#ffffff" y="-37.499999" height="449.999989" fill-opacity="1"/><g clip-path="url(#f8d0bb43d7)"><g clip-path="url(#05fd730f60)"><path stroke-linecap="butt" transform="matrix(0.75015, 0, 0, 0.75015, 36.750002, 37.499998)" fill="none" stroke-linejoin="miter" d="M 195.460968 0.00000328268 C 87.508565 0.00000328268 -0.00000278178 87.508571 -0.00000278178 195.460974 C -0.00000278178 303.413377 87.508565 390.921945 195.460968 390.921945 C 303.41337 390.921945 390.921939 303.413377 390.921939 195.460974 C 390.921939 87.508571 303.41337 0.00000328268 195.460968 0.00000328268 " stroke="#060606" stroke-width="4" stroke-opacity="1" stroke-miterlimit="4"/></g></g><g clip-path="url(#964d87b545)"><g clip-path="url(#3a1e6db6f2)"><path fill="#ffffff" d="M 82.476562 299.140625 L 332.101562 145.25 L 393.5 244.84375 L 143.875 398.734375 L 82.476562 299.140625 " fill-opacity="1" fill-rule="nonzero"/></g></g><g fill="#060606" fill-opacity="1"><g transform="translate(100.335703, 310.543777)"><g><path d="M 11.28125 -5.78125 L 7.328125 0.609375 C 6.753906 1.523438 6.050781 2.078125 5.21875 2.265625 C 4.394531 2.460938 3.539062 2.285156 2.65625 1.734375 C 1.550781 1.054688 0.914062 0.0507812 0.75 -1.28125 L 2.234375 -2.015625 C 2.429688 -0.953125 2.878906 -0.207031 3.578125 0.21875 C 3.992188 0.476562 4.394531 0.554688 4.78125 0.453125 C 5.164062 0.347656 5.503906 0.0625 5.796875 -0.40625 L 8.859375 -5.359375 L 5.671875 -7.34375 L 6.53125 -8.734375 Z M 11.28125 -5.78125 "/></g></g></g><g fill="#060606" fill-opacity="1"><g transform="translate(118.75177, 320.923027)"><g><path d="M 8.734375 1.0625 L 3.703125 -1.078125 L 1.765625 0.75 L 0.015625 0 L 8.6875 -8.09375 L 10.421875 -7.359375 L 10.515625 4.484375 L 8.71875 3.71875 Z M 8.71875 -0.703125 L 8.734375 -5.953125 L 4.9375 -2.328125 Z M 8.71875 -0.703125 "/></g></g></g><g fill="#060606" fill-opacity="1"><g transform="translate(142.066907, 329.635072)"><g><path d="M 6.578125 -2.078125 L 5.703125 1.421875 L 3.9375 0.984375 L 4.796875 -2.453125 L 2.640625 -10.53125 L 4.421875 -10.078125 L 6.171875 -4.1875 L 10.390625 -8.59375 L 12.203125 -8.140625 Z M 6.578125 -2.078125 "/></g></g></g><g fill="#060606" fill-opacity="1"><g transform="translate(164.889078, 334.24861)"><g><path d="M 5.984375 -10.4375 C 7.378906 -10.3125 8.601562 -9.828125 9.65625 -8.984375 L 8.75 -7.4375 C 7.707031 -8.21875 6.6875 -8.65625 5.6875 -8.75 C 5.132812 -8.800781 4.691406 -8.738281 4.359375 -8.5625 C 4.023438 -8.394531 3.84375 -8.128906 3.8125 -7.765625 C 3.78125 -7.410156 3.894531 -7.09375 4.15625 -6.8125 C 4.414062 -6.53125 4.757812 -6.304688 5.1875 -6.140625 C 5.613281 -5.984375 6.066406 -5.789062 6.546875 -5.5625 C 7.035156 -5.34375 7.488281 -5.113281 7.90625 -4.875 C 8.320312 -4.644531 8.648438 -4.300781 8.890625 -3.84375 C 9.140625 -3.382812 9.238281 -2.851562 9.1875 -2.25 C 9.101562 -1.300781 8.65625 -0.578125 7.84375 -0.078125 C 7.03125 0.421875 6.023438 0.613281 4.828125 0.5 C 3.992188 0.425781 3.203125 0.195312 2.453125 -0.1875 C 1.710938 -0.570312 1.082031 -1.050781 0.5625 -1.625 L 1.484375 -3.125 C 1.972656 -2.5625 2.535156 -2.113281 3.171875 -1.78125 C 3.804688 -1.457031 4.421875 -1.269531 5.015625 -1.21875 C 5.640625 -1.15625 6.140625 -1.222656 6.515625 -1.421875 C 6.898438 -1.617188 7.109375 -1.925781 7.140625 -2.34375 C 7.179688 -2.707031 7.066406 -3.03125 6.796875 -3.3125 C 6.523438 -3.59375 6.179688 -3.8125 5.765625 -3.96875 C 5.347656 -4.132812 4.894531 -4.320312 4.40625 -4.53125 C 3.914062 -4.75 3.457031 -4.96875 3.03125 -5.1875 C 2.613281 -5.414062 2.285156 -5.753906 2.046875 -6.203125 C 1.804688 -6.660156 1.710938 -7.1875 1.765625 -7.78125 C 1.847656 -8.707031 2.273438 -9.40625 3.046875 -9.875 C 3.816406 -10.351562 4.796875 -10.539062 5.984375 -10.4375 Z M 5.984375 -10.4375 "/></g></g></g><g fill="#060606" fill-opacity="1"><g transform="translate(187.977926, 335.373881)"><g><path d="M 1.515625 -9.453125 C 2.535156 -10.585938 3.859375 -11.210938 5.484375 -11.328125 C 7.109375 -11.441406 8.507812 -11.015625 9.6875 -10.046875 C 10.875 -9.078125 11.519531 -7.816406 11.625 -6.265625 C 11.738281 -4.722656 11.28125 -3.382812 10.25 -2.25 C 9.21875 -1.113281 7.890625 -0.488281 6.265625 -0.375 C 4.640625 -0.257812 3.238281 -0.6875 2.0625 -1.65625 C 0.894531 -2.632812 0.253906 -3.894531 0.140625 -5.4375 C 0.0351562 -6.988281 0.492188 -8.328125 1.515625 -9.453125 Z M 5.625 -9.6875 C 4.550781 -9.601562 3.660156 -9.164062 2.953125 -8.375 C 2.242188 -7.59375 1.925781 -6.660156 2 -5.578125 C 2.082031 -4.503906 2.53125 -3.617188 3.34375 -2.921875 C 4.164062 -2.234375 5.109375 -1.925781 6.171875 -2 C 7.234375 -2.082031 8.113281 -2.519531 8.8125 -3.3125 C 9.507812 -4.113281 9.816406 -5.050781 9.734375 -6.125 C 9.660156 -7.207031 9.222656 -8.085938 8.421875 -8.765625 C 7.617188 -9.453125 6.6875 -9.757812 5.625 -9.6875 Z M 5.625 -9.6875 "/></g></g></g><g fill="#060606" fill-opacity="1"><g transform="translate(213.889188, 332.350007)"><g><path d="M 10.53125 -2.609375 L 8.78125 -2.171875 L 1.296875 -8.328125 L 3.171875 -0.78125 L 1.375 -0.34375 L -1.234375 -10.890625 L 0.53125 -11.328125 L 8.046875 -5.140625 L 6.171875 -12.71875 L 7.921875 -13.15625 Z M 10.53125 -2.609375 "/></g></g></g><g fill="#060606" fill-opacity="1"><g transform="translate(238.419204, 325.004672)"><g/></g></g><g fill="#060606" fill-opacity="1"><g transform="translate(254.22061, 317.898056)"><g><path d="M 5 -9.0625 L 6.375 -9.859375 L 8.375 -6.390625 C 8.101562 -5.742188 7.707031 -5.117188 7.1875 -4.515625 C 6.664062 -3.910156 6.082031 -3.425781 5.4375 -3.0625 C 4.050781 -2.257812 2.613281 -2.039062 1.125 -2.40625 C -0.363281 -2.769531 -1.492188 -3.617188 -2.265625 -4.953125 C -3.035156 -6.296875 -3.195312 -7.703125 -2.75 -9.171875 C -2.3125 -10.640625 -1.378906 -11.785156 0.046875 -12.609375 C 0.710938 -12.992188 1.429688 -13.25 2.203125 -13.375 C 2.984375 -13.507812 3.71875 -13.515625 4.40625 -13.390625 L 4.203125 -11.703125 C 3.003906 -11.972656 1.890625 -11.804688 0.859375 -11.203125 C -0.0976562 -10.648438 -0.722656 -9.863281 -1.015625 -8.84375 C -1.316406 -7.820312 -1.195312 -6.84375 -0.65625 -5.90625 C -0.113281 -4.957031 0.675781 -4.351562 1.71875 -4.09375 C 2.769531 -3.84375 3.769531 -3.992188 4.71875 -4.546875 C 5.457031 -4.960938 6.054688 -5.59375 6.515625 -6.4375 Z M 5 -9.0625 "/></g></g></g><g fill="#060606" fill-opacity="1"><g transform="translate(275.373752, 304.385575)"><g><path d="M 4.953125 -7.25 L 0.734375 -3.78125 L 1.484375 -1.21875 L 0.015625 -0.015625 L -3.1875 -11.4375 L -1.75 -12.625 L 8.828125 -7.265625 L 7.328125 -6.03125 Z M 3.390625 -8.0625 L -1.265625 -10.484375 L 0.21875 -5.453125 Z M 3.390625 -8.0625 "/></g></g></g><g fill="#060606" fill-opacity="1"><g transform="translate(293.803627, 287.715623)"><g><path d="M 0.9375 -3.546875 L 4.0625 -7.046875 L 5.296875 -5.9375 L 0.953125 -1.0625 L -7.15625 -8.296875 L -5.9375 -9.671875 Z M 0.9375 -3.546875 "/></g></g></g><g fill="#060606" fill-opacity="1"><g transform="translate(307.551827, 270.932576)"><g><path d="M 2.515625 -8.40625 L -0.453125 -3.8125 L 1.046875 -1.609375 L 0.015625 -0.015625 L -6.5 -9.953125 L -5.46875 -11.515625 L 6.21875 -9.59375 L 5.15625 -7.96875 Z M 0.796875 -8.71875 L -4.375 -9.625 L -1.4375 -5.28125 Z M 0.796875 -8.71875 "/></g></g></g><g fill="#060606" fill-opacity="1"><g transform="translate(320.136025, 249.43346)"><g><path d="M -7.5 -10.09375 C -7.195312 -10.789062 -6.757812 -11.414062 -6.1875 -11.96875 C -5.613281 -12.519531 -4.988281 -12.925781 -4.3125 -13.1875 L -3.515625 -11.671875 C -4.054688 -11.484375 -4.546875 -11.191406 -4.984375 -10.796875 C -5.429688 -10.410156 -5.765625 -9.960938 -5.984375 -9.453125 C -6.421875 -8.460938 -6.453125 -7.472656 -6.078125 -6.484375 C -5.703125 -5.503906 -5.03125 -4.800781 -4.0625 -4.375 C -3.0625 -3.945312 -2.070312 -3.925781 -1.09375 -4.3125 C -0.113281 -4.707031 0.59375 -5.398438 1.03125 -6.390625 C 1.476562 -7.421875 1.484375 -8.519531 1.046875 -9.6875 L 2.59375 -10.1875 C 2.875 -9.46875 3.007812 -8.703125 3 -7.890625 C 3 -7.078125 2.847656 -6.320312 2.546875 -5.625 C 1.910156 -4.164062 0.890625 -3.148438 -0.515625 -2.578125 C -1.921875 -2.015625 -3.34375 -2.046875 -4.78125 -2.671875 C -6.175781 -3.285156 -7.140625 -4.304688 -7.671875 -5.734375 C -8.203125 -7.160156 -8.144531 -8.613281 -7.5 -10.09375 Z M -7.5 -10.09375 "/></g></g></g><g fill="#060606" fill-opacity="1"><g transform="translate(328.880571, 226.782089)"><g><path d="M -2.984375 -9.890625 L -2.59375 -11.4375 L 1.296875 -10.453125 C 1.554688 -9.816406 1.71875 -9.097656 1.78125 -8.296875 C 1.851562 -7.492188 1.796875 -6.738281 1.609375 -6.03125 C 1.210938 -4.46875 0.363281 -3.285156 -0.9375 -2.484375 C -2.238281 -1.679688 -3.640625 -1.46875 -5.140625 -1.84375 C -6.640625 -2.226562 -7.757812 -3.085938 -8.5 -4.421875 C -9.238281 -5.765625 -9.40625 -7.234375 -9 -8.828125 C -8.8125 -9.578125 -8.492188 -10.273438 -8.046875 -10.921875 C -7.597656 -11.578125 -7.082031 -12.101562 -6.5 -12.5 L -5.4375 -11.171875 C -6.46875 -10.515625 -7.132812 -9.601562 -7.4375 -8.4375 C -7.707031 -7.375 -7.570312 -6.375 -7.03125 -5.4375 C -6.5 -4.507812 -5.710938 -3.914062 -4.671875 -3.65625 C -3.609375 -3.382812 -2.625 -3.53125 -1.71875 -4.09375 C -0.8125 -4.664062 -0.222656 -5.484375 0.046875 -6.546875 C 0.253906 -7.367188 0.222656 -8.238281 -0.046875 -9.15625 Z M -2.984375 -9.890625 "/></g></g></g><g fill="#060606" fill-opacity="1"><g transform="translate(333.980444, 202.204891)"><g><path d="M -1.734375 -8.609375 L -2.1875 -3.15625 L 0.15625 -1.921875 L 0 -0.015625 L -10.421875 -5.703125 L -10.265625 -7.5625 L 0.953125 -11.390625 L 0.796875 -9.453125 Z M -3.40625 -8.0625 L -8.390625 -6.421875 L -3.75 -3.96875 Z M -3.40625 -8.0625 "/></g></g></g><g fill="#060606" fill-opacity="1"><g transform="translate(334.953717, 177.311653)"><g><path d="M -11.359375 -5.359375 C -11.421875 -6.128906 -11.332031 -6.890625 -11.09375 -7.640625 C -10.851562 -8.390625 -10.492188 -9.046875 -10.015625 -9.609375 L -8.59375 -8.65625 C -8.988281 -8.21875 -9.285156 -7.722656 -9.484375 -7.171875 C -9.691406 -6.628906 -9.773438 -6.082031 -9.734375 -5.53125 C -9.648438 -4.445312 -9.210938 -3.5625 -8.421875 -2.875 C -7.628906 -2.1875 -6.703125 -1.882812 -5.640625 -1.96875 C -4.554688 -2.050781 -3.675781 -2.492188 -3 -3.296875 C -2.320312 -4.097656 -2.023438 -5.039062 -2.109375 -6.125 C -2.203125 -7.238281 -2.710938 -8.207031 -3.640625 -9.03125 L -2.515625 -10.203125 C -1.929688 -9.703125 -1.445312 -9.09375 -1.0625 -8.375 C -0.6875 -7.65625 -0.46875 -6.914062 -0.40625 -6.15625 C -0.28125 -4.5625 -0.703125 -3.179688 -1.671875 -2.015625 C -2.648438 -0.859375 -3.921875 -0.222656 -5.484375 -0.109375 C -7.003906 0.015625 -8.332031 -0.425781 -9.46875 -1.4375 C -10.601562 -2.445312 -11.234375 -3.753906 -11.359375 -5.359375 Z M -11.359375 -5.359375 "/></g></g></g><g fill="#060606" fill-opacity="1"><g transform="translate(156.935473, 238.641123)"><g><path d="M 123.910156 -52.246094 L 123.910156 -55.117188 L 64.28125 -55.117188 L 72.210938 -44.175781 C 83.425781 -51.011719 94.640625 -52.246094 102.300781 -52.246094 L 108.453125 -52.246094 C 106.949219 -22.839844 93.546875 -4.375 70.980469 -4.375 C 45.816406 -4.375 33.097656 -28.171875 33.097656 -57.578125 C 33.097656 -86.160156 44.722656 -109.273438 65.785156 -109.273438 C 81.511719 -109.273438 89.445312 -94.230469 92.589844 -75.769531 L 114.199219 -81.785156 C 104.761719 -99.839844 89.171875 -112.148438 65.785156 -112.148438 C 34.054688 -112.148438 8.207031 -90.8125 8.207031 -56.074219 C 8.207031 -21.335938 30.773438 2.734375 63.871094 2.734375 C 89.582031 2.734375 103.121094 -12.035156 108.453125 -35.011719 L 108.453125 -30.363281 C 108.453125 -20.105469 108.042969 -11.078125 106.675781 0 L 114.609375 0 C 113.242188 -11.078125 112.832031 -20.105469 112.832031 -30.363281 L 112.832031 -52.246094 Z M 123.910156 -52.246094 "/></g></g></g><g fill="#060606" fill-opacity="1"><g transform="translate(107.56386, 238.641123)"><g><path d="M 14.632812 -109.410156 C 15.726562 -99.019531 16.136719 -92.863281 16.136719 -80.144531 L 16.136719 3.007812 C 16.136719 18.738281 13.402344 23.113281 2.734375 28.171875 L 3.417969 30.089844 C 20.515625 28.171875 39.113281 22.976562 39.113281 -2.460938 L 39.113281 -80.144531 C 39.113281 -92.863281 39.523438 -99.019531 40.621094 -109.410156 Z M 14.632812 -109.410156 "/></g></g></g></svg>